<svg xmlns="http://www.w3.org/2000/svg" viewBox="0 0 200 200" role="img" aria-label="Sample QR ticket code">
  <rect width="200" height="200" rx="16" fill="#ffffff"/>
  <g fill="#120c1e">
    <rect x="16" y="16" width="48" height="48"/>
    <rect x="28" y="28" width="24" height="24" fill="#ffffff"/>
    <rect x="136" y="16" width="48" height="48"/>
    <rect x="148" y="28" width="24" height="24" fill="#ffffff"/>
    <rect x="16" y="136" width="48" height="48"/>
    <rect x="28" y="148" width="24" height="24" fill="#ffffff"/>
    <rect x="80" y="16" width="12" height="12"/>
    <rect x="104" y="16" width="12" height="12"/>
    <rect x="80" y="40" width="12" height="12"/>
    <rect x="80" y="64" width="12" height="12"/>
    <rect x="104" y="76" width="12" height="12"/>
    <rect x="80" y="88" width="12" height="12"/>
    <rect x="100" y="100" width="12" height="12"/>
    <rect x="124" y="100" width="12" height="12"/>
    <rect x="76" y="112" width="12" height="12"/>
    <rect x="100" y="124" width="12" height="12"/>
    <rect x="148" y="76" width="12" height="12"/>
    <rect x="160" y="100" width="12" height="12"/>
    <rect x="136" y="112" width="12" height="12"/>
    <rect x="160" y="124" width="12" height="12"/>
    <rect x="136" y="148" width="12" height="12"/>
    <rect x="160" y="160" width="12" height="12"/>
    <rect x="88" y="148" width="12" height="12"/>
    <rect x="112" y="160" width="12" height="12"/>
    <rect x="88" y="172" width="12" height="12"/>
  </g>
</svg>